<?xml version="1.0" standalone="no"?><!DOCTYPE svg PUBLIC "-//W3C//DTD SVG 1.1//EN" "http://www.w3.org/Graphics/SVG/1.1/DTD/svg11.dtd"><svg t="1513999444243" class="icon" style="" viewBox="0 0 1024 1024" version="1.1" xmlns="http://www.w3.org/2000/svg" p-id="4402" xmlns:xlink="http://www.w3.org/1999/xlink" width="128" height="128"><defs><style type="text/css"></style></defs><path d="M171.52 285.056l113.536 0L285.056 171.52 171.52 171.52 171.52 285.056 171.52 285.056zM341.76 682.24l113.536 0 0-113.536L341.76 568.704 341.76 682.24 341.76 682.24zM257.152 767.872 257.152 682.24 114.816 682.24l0 226.944L341.76 909.184 341.76 767.872 257.152 767.872 257.152 767.872zM1.28 568.704 1.28 682.24l113.536 0 0-113.536L1.28 568.704 1.28 568.704zM341.76 1022.72l113.536 0 0-113.536L341.76 909.184 341.76 1022.72 341.76 1022.72zM1.28 1022.72l113.536 0 0-113.536L1.28 909.184 1.28 1022.72 1.28 1022.72zM1.28 455.296l454.016 0L455.296 1.28 1.28 1.28 1.28 455.296 1.28 455.296zM86.912 86.912l283.776 0 0 283.776L86.912 370.688 86.912 86.912 86.912 86.912zM682.24 114.816 682.24 1.28l-113.536 0 0 113.536 0 113.536 226.944 0L795.648 341.76l113.536 0L909.184 114.816 682.24 114.816 682.24 114.816zM568.704 455.296l226.944 0L795.648 341.76 568.704 341.76 568.704 455.296 568.704 455.296zM1022.72 1.28l-113.536 0 0 113.536L1022.72 114.816 1022.72 1.28 1022.72 1.28zM568.704 1022.72 1022.72 1022.72 1022.72 568.704 568.704 568.704 568.704 1022.72 568.704 1022.72zM654.336 654.336l283.776 0 0 283.776L654.336 938.112 654.336 654.336 654.336 654.336zM1022.72 455.296 1022.72 341.76l-113.536 0 0 113.536L1022.72 455.296 1022.72 455.296zM738.944 852.48 852.48 852.48l0-113.536-113.536 0L738.944 852.48 738.944 852.48zM738.944 852.48" p-id="4403"></path></svg>