<?xml version="1.0" standalone="no"?><!DOCTYPE svg PUBLIC "-//W3C//DTD SVG 1.1//EN" "http://www.w3.org/Graphics/SVG/1.1/DTD/svg11.dtd"><svg t="1513999376004" class="icon" style="" viewBox="0 0 1024 1024" version="1.1" xmlns="http://www.w3.org/2000/svg" p-id="3039" xmlns:xlink="http://www.w3.org/1999/xlink" width="128" height="128"><defs><style type="text/css"></style></defs><path d="M687.616 352.256c11.264 0 22.528 1.024 33.792 2.048C691.2 212.992 539.648 107.52 367.104 107.52 174.08 108.032 15.872 239.616 15.872 406.528c0 96.256 52.736 175.616 140.288 237.056l-35.328 105.472 122.88-61.44c44.032 8.704 79.36 17.408 122.88 17.408 11.264 0 22.016-0.512 32.768-1.536-6.656-23.552-10.752-48.128-10.752-73.728 0.512-153.088 132.096-277.504 299.008-277.504zM498.688 257.024c26.624 0 44.032 17.408 44.032 44.032 0 26.112-17.408 44.032-44.032 44.032-26.112 0-52.736-17.408-52.736-44.032 0-26.624 26.624-44.032 52.736-44.032z m-245.76 88.064c-26.112 0-52.736-17.408-52.736-44.032 0-26.624 26.624-44.032 52.736-44.032s44.032 17.408 44.032 44.032c0 26.112-17.408 44.032-44.032 44.032z m755.2 281.088c0-140.288-140.288-254.976-298.496-254.976-166.912 0-298.496 114.688-298.496 254.976 0 140.8 131.584 254.976 298.496 254.976 34.816 0 70.144-8.704 105.472-17.408L911.36 916.48l-26.624-87.552c70.656-53.76 123.392-123.904 123.392-202.752z m-395.264-44.032c-17.408 0-35.328-17.408-35.328-35.328 0-17.408 17.92-35.328 35.328-35.328 26.624 0 44.032 17.408 44.032 35.328 0 17.92-17.408 35.328-44.032 35.328z m193.024 0c-17.408 0-34.816-17.408-34.816-35.328 0-17.408 17.408-35.328 34.816-35.328 26.624 0 44.032 17.408 44.032 35.328 0 17.92-17.408 35.328-44.032 35.328z" fill="#00CE12" p-id="3040"></path></svg>